<?xml version="1.0" encoding="UTF-8"?>
<svg version="1.1" xmlns="http://www.w3.org/2000/svg" width="220" height="75">
<path d="M0 0 C72.6 0 145.2 0 220 0 C220 24.75 220 49.5 220 75 C147.4 75 74.8 75 0 75 C0 50.25 0 25.5 0 0 Z " fill="#F9FAFC" transform="translate(0,0)"/>
<path d="M0 0 C8.12625 -0.0825 16.2525 -0.165 24.625 -0.25 C27.18072754 -0.28641602 29.73645508 -0.32283203 32.36962891 -0.36035156 C34.4052649 -0.37203882 36.44091026 -0.38223056 38.4765625 -0.390625 C40.04990356 -0.4213208 40.04990356 -0.4213208 41.6550293 -0.45263672 C47.80240158 -0.45556613 51.29008658 -0.04969907 56 4 C56.598125 4.433125 57.19625 4.86625 57.8125 5.3125 C59.84811082 8.20521011 60 10.5036306 60 14 C56.97134557 19.93616268 51.77851926 21.69681759 45.81420898 23.99633789 C42.22872505 25.17304873 42.22872505 25.17304873 40 28 C40.825 28.20625 41.65 28.4125 42.5 28.625 C49.05668437 31.20084029 55.04328396 35.47058542 58 42 C58.7396648 47.15453907 58.63068036 51.48063367 56.625 56.3125 C49.85283772 63.24590423 40.36649781 66.85604224 31.5 70.375 C30.45585937 70.82488281 29.41171875 71.27476563 28.3359375 71.73828125 C17.94421177 75.85741109 12.41375765 75 0 75 C0 50.25 0 25.5 0 0 Z " fill="#133D98" transform="translate(0,0)"/>
<path d="M0 0 C0.928125 0.721875 1.85625 1.44375 2.8125 2.1875 C3.410625 2.620625 4.00875 3.05375 4.625 3.5 C6.66061082 6.39271011 6.8125 8.6911306 6.8125 12.1875 C3.78384557 18.12366268 -1.40898074 19.88431759 -7.37329102 22.18383789 C-10.95877495 23.36054873 -10.95877495 23.36054873 -13.1875 26.1875 C-12.3625 26.39375 -11.5375 26.6 -10.6875 26.8125 C-4.13081563 29.38834029 1.85578396 33.65808542 4.8125 40.1875 C5.56266754 45.41523002 5.46970697 49.70878431 3.3125 54.5625 C0.21429065 57.81561982 -3.06030647 60.36573098 -7.1875 62.1875 C-8.5075 62.1875 -9.8275 62.1875 -11.1875 62.1875 C-11.6825 54.7625 -11.6825 54.7625 -12.1875 47.1875 C-14.8275 46.1975 -17.4675 45.2075 -20.1875 44.1875 C-18.74363418 40.47470216 -17.06513608 39.2388557 -13.5625 37.4375 C-12.74523438 37.00953125 -11.92796875 36.5815625 -11.0859375 36.140625 C-10.45945313 35.82609375 -9.83296875 35.5115625 -9.1875 35.1875 C-9.1875 33.8675 -9.1875 32.5475 -9.1875 31.1875 C-14.22022826 28.09043646 -18.41943676 27.18315672 -24.1875 28.1875 C-29.06134781 30.03108591 -33.75283726 32.16434364 -37.1875 36.1875 C-37.90197643 38.29082891 -37.90197643 38.29082891 -38.1875 40.1875 C-43.0517194 39.77056691 -45.08626673 37.86001308 -48.1875 34.1875 C-50.64661591 30.37163049 -51.95861506 26.87438408 -51.6953125 22.2578125 C-50.434439 17.11732822 -46.86890013 13.82717806 -42.44677734 11.12304688 C-37.81600893 8.54767126 -33.03059976 6.33026536 -28.1875 4.1875 C-27.21554688 3.75179688 -26.24359375 3.31609375 -25.2421875 2.8671875 C-17.58723849 -0.37236772 -7.71276811 -4.38569167 0 0 Z " fill="#0E3997" transform="translate(53.1875,1.8125)"/>
<path d="M0 0 C14.52 0 29.04 0 44 0 C40.61594895 1.69202552 37.85610336 2.64567751 34.25 3.625 C23.3540348 6.920845 12.04440213 11.75939294 4 20 C2.08940021 23.82119959 2.46735342 28.07095563 3.578125 32.09375 C6.13547683 38.13839977 10.44595362 40.82767102 16 44 C17.010625 44.61875 18.02125 45.2375 19.0625 45.875 C19.701875 46.24625 20.34125 46.6175 21 47 C18.6543149 49.7047965 16.5455414 50.70922833 13.1875 51.875 C8.53598115 53.67976207 5.32757913 55.23458151 2 59 C1.20966108 63.34686404 1.65703836 65.36307124 3.75 69.25 C6.05394248 72.28964766 6.05394248 72.28964766 10 75 C6.7 75 3.4 75 0 75 C0 50.25 0 25.5 0 0 Z " fill="#F8F9FB" transform="translate(0,0)"/>
<path d="M0 0 C1.67337415 0.94993563 3.28054867 2.01473194 4.87109375 3.09765625 C4.8515625 5.32421875 4.8515625 5.32421875 3.87109375 8.09765625 C1.512581 9.96865519 -1.10407242 11.18976319 -3.81640625 12.47265625 C-4.52474609 12.84003906 -5.23308594 13.20742188 -5.96289062 13.5859375 C-10.38064414 15.74790367 -13.24358913 16.65046387 -18.12890625 15.09765625 C-21.50390625 13.03515625 -21.50390625 13.03515625 -24.12890625 11.09765625 C-23.85053553 7.75720765 -23.40865492 6.37740492 -21.00390625 3.97265625 C-14.56727435 -0.22514716 -7.49121506 -3.17517556 0 0 Z " fill="#F5F6F9" transform="translate(40.12890625,29.90234375)"/>
<path d="M0 0 C0.9796875 -0.00257812 1.959375 -0.00515625 2.96875 -0.0078125 C5.5 0.125 5.5 0.125 7.5 1.125 C7.55383848 3.58362401 7.59359038 6.0410755 7.625 8.5 C7.64175781 9.19867188 7.65851562 9.89734375 7.67578125 10.6171875 C7.69344267 12.45397486 7.60303261 14.29101963 7.5 16.125 C5.5 18.125 5.5 18.125 2.96875 18.35546875 C1.49921875 18.33419922 1.49921875 18.33419922 0 18.3125 C-1.46953125 18.30283203 -1.46953125 18.30283203 -2.96875 18.29296875 C-5.5 18.125 -5.5 18.125 -7.5 17.125 C-7.5 11.845 -7.5 6.565 -7.5 1.125 C-4.89080172 -0.17959914 -2.91057385 -0.0076594 0 0 Z " fill="#F7F9FB" transform="translate(33.5,46.875)"/>
<path d="M0 0 C2.5 1.5625 2.5 1.5625 4 4 C4.72125695 8.40768137 4.52001338 10.25937488 1.9375 13.9375 C-1.74062512 16.52001338 -3.59231863 16.72125695 -8 16 C-10.4375 14.5 -10.4375 14.5 -12 12 C-12.79841448 7.98323437 -12.61897146 5.0316191 -10.5 1.5 C-6.9683809 -0.61897146 -4.01676563 -0.79841448 0 0 Z " fill="#1A4196" transform="translate(130,18)"/>
<path d="M0 0 C2.9375 0.9375 2.9375 0.9375 5 3 C5.73129508 6.13921791 5.69790363 8.85659665 5 12 C2.30081929 15.35352755 0.68563364 15.90377072 -3.5625 16.5 C-7 16 -7 16 -9.4375 14.5 C-11.63828902 10.97873756 -11.80414661 8.04560357 -11 4 C-8.14322939 -0.57083298 -5.12924275 -0.629907 0 0 Z " fill="#3255A1" transform="translate(182,18)"/>
<path d="M0 0 C10.625 -0.25 10.625 -0.25 14 2 C14.47730962 5.72301503 14.1387261 6.79191085 12 10 C12.495 10.61875 12.99 11.2375 13.5 11.875 C15 14 15 14 15 16 C12.1875 16.3125 12.1875 16.3125 9 16 C7.25 13.5625 7.25 13.5625 6 11 C5.34 10.67 4.68 10.34 4 10 C4 11.98 4 13.96 4 16 C2.68 16 1.36 16 0 16 C0 10.72 0 5.44 0 0 Z " fill="#133C95" transform="translate(102,18)"/>
<path d="M0 0 C0.99 0 1.98 0 3 0 C3 19.47 3 38.94 3 59 C2.01 59 1.02 59 0 59 C0 39.53 0 20.06 0 0 Z " fill="#355594" transform="translate(66,8)"/>
<path d="M0 0 C3.70237797 0.31917051 5.08801878 0.67403953 7.625 3.3125 C7.625 3.9725 7.625 4.6325 7.625 5.3125 C4.985 4.9825 2.345 4.6525 -0.375 4.3125 C-0.375 4.9725 -0.375 5.6325 -0.375 6.3125 C0.57375 6.43625 1.5225 6.56 2.5 6.6875 C5.625 7.3125 5.625 7.3125 7.625 9.3125 C7.4375 11.8125 7.4375 11.8125 6.625 14.3125 C2.93013897 16.77574069 0.99206908 16.70241688 -3.375 16.3125 C-5.3125 15 -5.3125 15 -6.375 13.3125 C-6.375 12.3225 -6.375 11.3325 -6.375 10.3125 C-2.74971432 10.11109524 -0.50998292 10.45473235 2.625 12.3125 C2.625 11.6525 2.625 10.9925 2.625 10.3125 C1.490625 10.003125 0.35625 9.69375 -0.8125 9.375 C-4.375 8.3125 -4.375 8.3125 -5.375 7.3125 C-5.5625 4.875 -5.5625 4.875 -5.375 2.3125 C-3.375 0.3125 -3.375 0.3125 0 0 Z " fill="#244A98" transform="translate(82.375,17.6875)"/>
<path d="M0 0 C2.4375 1.375 2.4375 1.375 4 3 C4 3.66 4 4.32 4 5 C0.67465243 6.10844919 -1.62182575 5.84454356 -5 5 C-5 6.98 -5 8.96 -5 11 C-0.545 10.505 -0.545 10.505 4 10 C3 14 3 14 0 16 C-3.4375 16.4375 -3.4375 16.4375 -7 16 C-10.22456813 13.27151928 -10.91290117 11.62057913 -11.5 7.4375 C-11 4 -11 4 -9.4375 1.5625 C-6.08147594 -0.58879747 -3.91578329 -0.48947291 0 0 Z " fill="#3557A1" transform="translate(147,18)"/>
<path d="M0 0 C2.4375 1.375 2.4375 1.375 4 3 C4 3.66 4 4.32 4 5 C0.94736336 5.98120464 -0.94736336 5.98120464 -4 5 C-4.33 6.65 -4.66 8.3 -5 10 C-3.68 10.33 -2.36 10.66 -1 11 C-0.67 10.34 -0.34 9.68 0 9 C1.32 9.33 2.64 9.66 4 10 C3.6875 11.875 3.6875 11.875 3 14 C-0.15546316 16.10364211 -0.56087261 16.26411176 -4.0625 15.8125 C-4.75472656 15.73644531 -5.44695312 15.66039062 -6.16015625 15.58203125 C-8 15 -8 15 -10 12 C-10.30078125 9.84375 -10.30078125 9.84375 -10.3125 7.5 C-10.32925781 6.7265625 -10.34601563 5.953125 -10.36328125 5.15625 C-9.3852615 -0.64877044 -5.06597889 -0.53326094 0 0 Z " fill="#123B99" transform="translate(164,18)"/>
<path d="M0 0 C6.625 -0.25 6.625 -0.25 10 2 C10.3984375 3.875 10.3984375 3.875 10.375 6 C10.38273438 6.70125 10.39046875 7.4025 10.3984375 8.125 C10 10 10 10 7 12 C4.66800612 12.07905064 2.33167378 12.08798769 0 12 C0 8.04 0 4.08 0 0 Z " fill="#355695" transform="translate(208,42)"/>
<path d="M0 0 C6 0 6 0 9 2 C9.36328125 3.875 9.36328125 3.875 9.3125 6 C9.30863281 6.70125 9.30476562 7.4025 9.30078125 8.125 C9 10 9 10 7 12 C3.375 12.125 3.375 12.125 0 12 C0 8.04 0 4.08 0 0 Z " fill="#315499" transform="translate(126,42)"/>
<path d="M0 0 C4 1 4 1 6 4 C6.33 2.68 6.66 1.36 7 0 C8.32 0 9.64 0 11 0 C11 3.96 11 7.92 11 12 C10.34 12 9.68 12 9 12 C8.67 10.35 8.34 8.7 8 7 C7.67 8.65 7.34 10.3 7 12 C6.01 12 5.02 12 4 12 C3.67 10.68 3.34 9.36 3 8 C2.67 9.32 2.34 10.64 2 12 C1.34 12 0.68 12 0 12 C0 8.04 0 4.08 0 0 Z " fill="#4C6BA9" transform="translate(169,42)"/>
<path d="M0 0 C2.4375 0.1875 2.4375 0.1875 5 1 C6.3125 3.0625 6.3125 3.0625 7 5 C7.66 5 8.32 5 9 5 C9 3.35 9 1.7 9 0 C9.33 0 9.66 0 10 0 C10.4206933 4.29107165 10.45543836 6.35134537 7.9375 9.9375 C4.31361351 12.48193094 2.34125236 12.57337295 -2 12 C-2.66 11.34 -3.32 10.68 -4 10 C-1.36 10.33 1.28 10.66 4 11 C4 10.34 4 9.68 4 9 C2.68 9 1.36 9 0 9 C-1.36623674 6.26752652 -1.128426 4.01801098 -1 1 C-0.67 0.67 -0.34 0.34 0 0 Z " fill="#2B519B" transform="translate(124,22)"/>
<path d="M0 0 C2.4375 1 2.4375 1 4 3 C4.33145271 5.75486103 4.18316636 8.20671304 4 11 C3.01 10.67 2.02 10.34 1 10 C-0.1875 7.4375 -0.1875 7.4375 -1 5 C-2.65 5.33 -4.3 5.66 -6 6 C-6.33 7.65 -6.66 9.3 -7 11 C-7.99 10.67 -8.98 10.34 -10 10 C-10.35915493 3.65492958 -10.35915493 3.65492958 -8.9375 1.0625 C-5.87116726 -0.61903731 -3.42486249 -0.36051184 0 0 Z " fill="#234899" transform="translate(182,18)"/>
<path d="M0 0 C0.33 0 0.66 0 1 0 C1 4.95 1 9.9 1 15 C1.66 15.33 2.32 15.66 3 16 C0.06574629 17.17495143 -2.87289513 18.33850852 -5.8125 19.5 C-6.64587891 19.83386719 -7.47925781 20.16773437 -8.33789062 20.51171875 C-9.14033203 20.82753906 -9.94277344 21.14335938 -10.76953125 21.46875 C-11.87711792 21.90864258 -11.87711792 21.90864258 -13.00708008 22.35742188 C-15 23 -15 23 -18 23 C-18 22.34 -18 21.68 -18 21 C-17.34 21 -16.68 21 -16 21 C-16 19.35 -16 17.7 -16 16 C-12.84794071 14.94931357 -10.67390424 14.93036614 -7.375 15 C-5.58372817 15.03761201 -3.79105866 15.04667254 -2 15 C-0.05909174 13.05909174 -0.60080565 9.52706098 -0.4375 6.9375 C-0.35371094 5.64714844 -0.26992188 4.35679688 -0.18359375 3.02734375 C-0.09271484 1.52880859 -0.09271484 1.52880859 0 0 Z " fill="#133D91" transform="translate(41,49)"/>
<path d="M0 0 C0.66 0.33 1.32 0.66 2 1 C2.20086443 4.71599191 2.1519437 5.77208445 0 9 C0.495 9.61875 0.99 10.2375 1.5 10.875 C3 13 3 13 3 15 C1.02 15 -0.96 15 -3 15 C-3.99 13.02 -4.98 11.04 -6 9 C-5.01 8.67 -4.02 8.34 -3 8 C-3 7.34 -3 6.68 -3 6 C-4.65 6 -6.3 6 -8 6 C-8 4.68 -8 3.36 -8 2 C-6.865625 1.855625 -5.73125 1.71125 -4.5625 1.5625 C-1.19222799 1.38828522 -1.19222799 1.38828522 0 0 Z " fill="#284D9B" transform="translate(114,19)"/>
<path d="M0 0 C1.670625 0.2475 1.670625 0.2475 3.375 0.5 C6.94351384 1.26487734 6.94351384 1.26487734 10 0 C9 3 9 3 7 4 C7.99 4 8.98 4 10 4 C10.66 3.01 11.32 2.02 12 1 C12.144375 2.11375 12.28875 3.2275 12.4375 4.375 C12.78372035 7.82142047 12.78372035 7.82142047 14 10 C11.69 10.33 9.38 10.66 7 11 C7.66 9.35 8.32 7.7 9 6 C8.278125 6.350625 7.55625 6.70125 6.8125 7.0625 C3.6877295 8.10409017 2.11838004 7.89096572 -1 7 C-1.04254356 5.00045254 -1.04080783 2.99958364 -1 1 C-0.67 0.67 -0.34 0.34 0 0 Z " fill="#DFE4ED" transform="translate(142,22)"/>
<path d="M0 0 C2.00546689 0.29868656 4.00577205 0.63371323 6 1 C6.99 0.67 7.98 0.34 9 0 C9.66 0.33 10.32 0.66 11 1 C11 3.31 11 5.62 11 8 C10.34 8 9.68 8 9 8 C8.67 8.99 8.34 9.98 8 11 C7.34 10.67 6.68 10.34 6 10 C6.33 8.68 6.66 7.36 7 6 C6.01 5.67 5.02 5.34 4 5 C3.67 5.99 3.34 6.98 3 8 C1.68 7.67 0.36 7.34 -1 7 C-1.625 4.625 -1.625 4.625 -2 2 C-1.34 1.34 -0.68 0.68 0 0 Z " fill="#E8EBF2" transform="translate(160,22)"/>
<path d="M0 0 C2.3125 0 2.3125 0 5 1 C7.02127487 4.52143981 8 7.95264611 8 12 C7.01 11.67 6.02 11.34 5 11 C5 10.34 5 9.68 5 9 C3.35 9 1.7 9 0 9 C-0.33 9.99 -0.66 10.98 -1 12 C-1.66 12 -2.32 12 -3 12 C-2.49202991 7.6822542 -1.80317221 3.96697886 0 0 Z " fill="#5D78AE" transform="translate(104,42)"/>
<path d="M0 0 C2.3125 0 2.3125 0 5 1 C7.02127487 4.52143981 8 7.95264611 8 12 C7.01 11.67 6.02 11.34 5 11 C5 10.34 5 9.68 5 9 C3.35 9 1.7 9 0 9 C-0.33 9.99 -0.66 10.98 -1 12 C-1.66 12 -2.32 12 -3 12 C-2.49202991 7.6822542 -1.80317221 3.96697886 0 0 Z " fill="#3D5E9C" transform="translate(140,42)"/>
<path d="M0 0 C1.65 0 3.3 0 5 0 C5 5.28 5 10.56 5 16 C3.35 16 1.7 16 0 16 C0 10.72 0 5.44 0 0 Z " fill="#24499C" transform="translate(190,18)"/>
<path d="M0 0 C1.65 0 3.3 0 5 0 C5 5.28 5 10.56 5 16 C3.35 16 1.7 16 0 16 C0 10.72 0 5.44 0 0 Z " fill="#19418F" transform="translate(93,18)"/>
<path d="M0 0 C3.70237797 0.31917051 5.08801878 0.67403953 7.625 3.3125 C7.625 3.9725 7.625 4.6325 7.625 5.3125 C4.985 4.9825 2.345 4.6525 -0.375 4.3125 C-0.375 4.9725 -0.375 5.6325 -0.375 6.3125 C0.615 6.6425 1.605 6.9725 2.625 7.3125 C2.625 8.3025 2.625 9.2925 2.625 10.3125 C-4.25 8.4375 -4.25 8.4375 -5.375 7.3125 C-5.5625 4.875 -5.5625 4.875 -5.375 2.3125 C-3.375 0.3125 -3.375 0.3125 0 0 Z " fill="#224797" transform="translate(82.375,17.6875)"/>
<path d="M0 0 C4.5 2.25 4.5 2.25 6 6 C6.33 4.02 6.66 2.04 7 0 C7.66 0 8.32 0 9 0 C9 3.96 9 7.92 9 12 C8.01 12 7.02 12 6 12 C4.3125 9.5 4.3125 9.5 3 7 C2.67 8.65 2.34 10.3 2 12 C1.34 12 0.68 12 0 12 C0 8.04 0 4.08 0 0 Z " fill="#3E5EA1" transform="translate(114,42)"/>
<path d="M0 0 C0.66 0.33 1.32 0.66 2 1 C2.625 3.5625 2.625 3.5625 3 6 C7.455 5.505 7.455 5.505 12 5 C11 9 11 9 8 11 C4.4375 11.25 4.4375 11.25 1 11 C-1 9 -1 9 -1.23046875 7.08984375 C-1.11111111 1.11111111 -1.11111111 1.11111111 0 0 Z " fill="#1B4397" transform="translate(139,23)"/>
<path d="M0 0 C0.66 0.99 1.32 1.98 2 3 C-0.31 3 -2.62 3 -5 3 C-5 4.98 -5 6.96 -5 9 C-3.35 9.33 -1.7 9.66 0 10 C0 9.34 0 8.68 0 8 C-0.99 8 -1.98 8 -3 8 C-3 7.34 -3 6.68 -3 6 C-1.35 6 0.3 6 2 6 C2.042721 7.66611905 2.04063832 9.33382885 2 11 C1 12 1 12 -2.375 12.3125 C-6 12 -6 12 -7.9375 10.3125 C-9.19214083 7.58181113 -9.45702746 5.97067849 -9 3 C-6.74087166 -0.63970677 -4.02464148 -0.51378402 0 0 Z " fill="#395B9D" transform="translate(97,42)"/>
<path d="M0 0 C2.97 0 5.94 0 9 0 C9 0.66 9 1.32 9 2 C6.69 2 4.38 2 2 2 C2 2.99 2 3.98 2 5 C4.31 5 6.62 5 9 5 C9 5.66 9 6.32 9 7 C6.69 7 4.38 7 2 7 C2 7.99 2 8.98 2 10 C4.31 10 6.62 10 9 10 C9 10.66 9 11.32 9 12 C6.03 12 3.06 12 0 12 C0 8.04 0 4.08 0 0 Z " fill="#33538D" transform="translate(197,42)"/>
<path d="M0 0 C0.66 0 1.32 0 2 0 C2 3.96 2 7.92 2 12 C1.34 12 0.68 12 0 12 C0 11.34 0 10.68 0 10 C-2.31 10 -4.62 10 -7 10 C-7 9.01 -7 8.02 -7 7 C-4.69 7 -2.38 7 0 7 C0 6.34 0 5.68 0 5 C-2.31 5 -4.62 5 -7 5 C-7 4.01 -7 3.02 -7 2 C-4.69 2 -2.38 2 0 2 C0 1.34 0 0.68 0 0 Z " fill="#E2E7EF" transform="translate(206,42)"/>
<path d="M0 0 C0.99 0 1.98 0 3 0 C3.33 2.97 3.66 5.94 4 9 C4.99 9 5.98 9 7 9 C7.33 6.03 7.66 3.06 8 0 C8.66 0 9.32 0 10 0 C10.05395478 1.62463842 10.09277195 3.24978541 10.125 4.875 C10.14820312 5.77992187 10.17140625 6.68484375 10.1953125 7.6171875 C10 10 10 10 8 12 C5 12.3125 5 12.3125 2 12 C-0.13586678 8.79619983 -0.23132175 7.98060033 -0.125 4.3125 C-0.10695313 3.50425781 -0.08890625 2.69601563 -0.0703125 1.86328125 C-0.04710938 1.24839844 -0.02390625 0.63351563 0 0 Z " fill="#2A4F97" transform="translate(76,42)"/>
<path d="M0 0 C2.4375 1.375 2.4375 1.375 4 3 C4 3.66 4 4.32 4 5 C0.90281114 5.99552499 -0.90271275 5.89921243 -4 5 C-4.99 5 -5.98 5 -7 5 C-7.66 4.67 -8.32 4.34 -9 4 C-9 6.64 -9 9.28 -9 12 C-9.33 12 -9.66 12 -10 12 C-10.08131463 10.56344146 -10.13933559 9.1255517 -10.1875 7.6875 C-10.22230469 6.88699219 -10.25710937 6.08648437 -10.29296875 5.26171875 C-10 3 -10 3 -8.703125 1.23046875 C-5.86435777 -0.82047546 -3.37664134 -0.35543593 0 0 Z " fill="#2F549D" transform="translate(164,18)"/>
<path d="M0 0 C0.33 0 0.66 0 1 0 C1 5.28 1 10.56 1 16 C-2 13 -2 13 -2.8125 10.4375 C-3.83077151 7.66714396 -3.83077151 7.66714396 -7.125 6.6875 C-8.07375 6.460625 -9.0225 6.23375 -10 6 C-10 5.34 -10 4.68 -10 4 C-7.36 4.33 -4.72 4.66 -2 5 C-1.34 3.35 -0.68 1.7 0 0 Z " fill="#E2E7EE" transform="translate(92,18)"/>
<path d="M0 0 C1.66611905 -0.042721 3.33382885 -0.04063832 5 0 C6 1 6 1 6.125 4 C6 7 6 7 5 8 C3.33382885 8.04063832 1.66611905 8.042721 0 8 C0 5.36 0 2.72 0 0 Z " fill="#D9DFE9" transform="translate(210,44)"/>
<path d="M0 0 C2.33944736 0.28730055 4.6739143 0.61936779 7 1 C7 1.99 7 2.98 7 4 C5.35 4 3.7 4 2 4 C2 4.66 2 5.32 2 6 C2.99 6 3.98 6 5 6 C5 6.66 5 7.32 5 8 C3.33388095 8.042721 1.66617115 8.04063832 0 8 C-1 7 -1 7 -1.125 4 C-1 1 -1 1 0 0 Z " fill="#DFE4EE" transform="translate(92,44)"/>
<path d="M0 0 C1.67542976 0.28604898 3.34385343 0.61781233 5 1 C5 2.98 5 4.96 5 7 C3.34385343 7.38218767 1.67542976 7.71395102 0 8 C-1 7 -1 7 -1.125 4 C-1 1 -1 1 0 0 Z " fill="#E7EAF2" transform="translate(177,22)"/>
<path d="M0 0 C1.67542976 0.28604898 3.34385343 0.61781233 5 1 C5 2.98 5 4.96 5 7 C3.34385343 7.38218767 1.67542976 7.71395102 0 8 C-1 7 -1 7 -1.125 4 C-1 1 -1 1 0 0 Z " fill="#E7EBF2" transform="translate(124,22)"/>
<path d="M0 0 C1.85772162 0.08984301 3.71247985 0.24611861 5.5625 0.4375 C7.08037109 0.59025391 7.08037109 0.59025391 8.62890625 0.74609375 C9.80259766 0.87177734 9.80259766 0.87177734 11 1 C11 1.33 11 1.66 11 2 C8.03 2.66 5.06 3.32 2 4 C3.98 4 5.96 4 8 4 C4.32740617 6.44839588 1.45351799 8 -3 8 C-3 7.34 -3 6.68 -3 6 C-2.34 6 -1.68 6 -1 6 C-1.0309375 4.7934375 -1.0309375 4.7934375 -1.0625 3.5625 C-1 1 -1 1 0 0 Z " fill="#254B9A" transform="translate(26,64)"/>
<path d="M0 0 C0.66 0.33 1.32 0.66 2 1 C2 2.65 2 4.3 2 6 C-1.33333333 6 -4.66666667 6 -8 6 C-8 4.68 -8 3.36 -8 2 C-6.865625 1.855625 -5.73125 1.71125 -4.5625 1.5625 C-1.19222799 1.38828522 -1.19222799 1.38828522 0 0 Z " fill="#4C6BAC" transform="translate(114,19)"/>
<path d="M0 0 C3.3 0 6.6 0 10 0 C10 0.66 10 1.32 10 2 C8.68 2 7.36 2 6 2 C6 5.3 6 8.6 6 12 C5.34 12 4.68 12 4 12 C4 8.7 4 5.4 4 2 C2.68 2 1.36 2 0 2 C0 1.34 0 0.68 0 0 Z " fill="#2E4F96" transform="translate(186,42)"/>
<path d="M0 0 C2.475 0.495 2.475 0.495 5 1 C5 2.98 5 4.96 5 7 C3.35 7.33 1.7 7.66 0 8 C0 5.36 0 2.72 0 0 Z " fill="#ECEFF5" transform="translate(128,44)"/>
<path d="M0 0 C0.99 0.33 1.98 0.66 3 1 C3 3.31 3 5.62 3 8 C2.34 8 1.68 8 1 8 C0.67 8.99 0.34 9.98 0 11 C-0.66 10.67 -1.32 10.34 -2 10 C-1.835 9.38125 -1.67 8.7625 -1.5 8.125 C-0.92365356 6.03936614 -0.92365356 6.03936614 -1 4 C-1.99 3.67 -2.98 3.34 -4 3 C-2.1875 1.4375 -2.1875 1.4375 0 0 Z " fill="#DFE4EC" transform="translate(168,22)"/>
<path d="M0 0 C0.99 0 1.98 0 3 0 C3 3.96 3 7.92 3 12 C2.01 12 1.02 12 0 12 C0 8.04 0 4.08 0 0 Z " fill="#4C68A1" transform="translate(182,42)"/>
<path d="M0 0 C0.66 0 1.32 0 2 0 C2 3.3 2 6.6 2 10 C3.98 10 5.96 10 8 10 C8 10.66 8 11.32 8 12 C5.36 12 2.72 12 0 12 C0 8.04 0 4.08 0 0 Z " fill="#2A4B8B" transform="translate(154,42)"/>
<path d="M0 0 C0.99 0 1.98 0 3 0 C3 3.96 3 7.92 3 12 C2.01 12 1.02 12 0 12 C0 8.04 0 4.08 0 0 Z " fill="#C0CADC" transform="translate(123,42)"/>
<path d="M0 0 C0.7425 0.763125 1.485 1.52625 2.25 2.3125 C4.4263323 4.4393702 6.52167796 6.2559956 9 8 C8.67 8.99 8.34 9.98 8 11 C5.00674781 10.00224927 3.4466119 8.92763362 1 7 C0.2575 6.443125 -0.485 5.88625 -1.25 5.3125 C-1.8275 4.879375 -2.405 4.44625 -3 4 C-2.01 4 -1.02 4 0 4 C0 2.68 0 1.36 0 0 Z " fill="#4363A4" transform="translate(15,38)"/>
<path d="M0 0 C0.99 0 1.98 0 3 0 C3 2.31 3 4.62 3 7 C5.97 7.495 5.97 7.495 9 8 C9 8.66 9 9.32 9 10 C1.125 9.125 1.125 9.125 0 8 C-0.14115161 5.32941149 -0.04247107 2.67567762 0 0 Z " fill="#0B3697" transform="translate(119,23)"/>
<path d="M0 0 C3.96 0.99 3.96 0.99 8 2 C6.02 2.99 6.02 2.99 4 4 C4 6.31 4 8.62 4 11 C3.01 11 2.02 11 1 11 C1.33 8.69 1.66 6.38 2 4 C1.01 4 0.02 4 -1 4 C-1 6.31 -1 8.62 -1 11 C-1.33 11 -1.66 11 -2 11 C-2.25 3.375 -2.25 3.375 0 0 Z " fill="#3557A1" transform="translate(120,19)"/>
<path d="M0 0 C2.76477453 2.76477453 2.52458441 5.1966753 3 9 C3.33 9.66 3.66 10.32 4 11 C3.34 11 2.68 11 2 11 C1.67 11.66 1.34 12.32 1 13 C-0.98 9.535 -0.98 9.535 -3 6 C-2.34 5.34 -1.68 4.68 -1 4 C-0.3574765 1.93125966 -0.3574765 1.93125966 0 0 Z " fill="#E2E7EF" transform="translate(116,21)"/>
<path d="M0 0 C0.66 0 1.32 0 2 0 C2 3.96 2 7.92 2 12 C2.66 12.33 3.32 12.66 4 13 C2.02 13 0.04 13 -2 13 C-1.34 12.67 -0.68 12.34 0 12 C-0.2784375 10.700625 -0.2784375 10.700625 -0.5625 9.375 C-1.00667933 5.94847372 -0.71954492 3.35787629 0 0 Z " fill="#CDD4E1" transform="translate(112,42)"/>
<path d="M0 0 C3 2 3 2 3.6875 5.125 C3.790625 6.07375 3.89375 7.0225 4 8 C3.01 7.67 2.02 7.34 1 7 C1 6.34 1 5.68 1 5 C-0.98 5 -2.96 5 -5 5 C-4.67 4.01 -4.34 3.02 -4 2 C-2.02 2.495 -2.02 2.495 0 3 C0 2.01 0 1.02 0 0 Z " fill="#315197" transform="translate(108,46)"/>
<path d="M0 0 C0.99 0 1.98 0 3 0 C3.33 3.3 3.66 6.6 4 10 C3.01 10.33 2.02 10.66 1 11 C-0.20272819 8.59454362 -0.10071472 7.05003047 -0.0625 4.375 C-0.05347656 3.55773438 -0.04445313 2.74046875 -0.03515625 1.8984375 C-0.02355469 1.27195313 -0.01195313 0.64546875 0 0 Z " fill="#516DA4" transform="translate(76,42)"/>
<path d="M0 0 C0.99 1.485 0.99 1.485 2 3 C2.66 2.34 3.32 1.68 4 1 C6.125 1.375 6.125 1.375 8 2 C7.01 2 6.02 2 5 2 C5 2.66 5 3.32 5 4 C5.99 4.33 6.98 4.66 8 5 C8 5.99 8 6.98 8 8 C1.125 6.125 1.125 6.125 0 5 C-0.04063832 3.33382885 -0.042721 1.66611905 0 0 Z " fill="#34569E" transform="translate(77,20)"/>
<path d="M0 0 C3.375 -0.125 3.375 -0.125 7 0 C7.66 0.66 8.32 1.32 9 2 C8.625 4.625 8.625 4.625 8 7 C7.34 7 6.68 7 6 7 C5.34 6.34 4.68 5.68 4 5 C4 3.68 4 2.36 4 1 C2.68 0.67 1.36 0.34 0 0 Z " fill="#173F97" transform="translate(81,25)"/>
<path d="M0 0 C0.66 0 1.32 0 2 0 C2 3.96 2 7.92 2 12 C1.01 12 0.02 12 -1 12 C-0.67 8.04 -0.34 4.08 0 0 Z " fill="#21489B" transform="translate(121,42)"/>
<path d="M0 0 C0.33 0 0.66 0 1 0 C1.144375 1.11375 1.28875 2.2275 1.4375 3.375 C1.78372035 6.82142047 1.78372035 6.82142047 3 9 C0.69 9.33 -1.62 9.66 -4 10 C-3.34 8.35 -2.68 6.7 -2 5 C-3.32 4.67 -4.64 4.34 -6 4 C-4.35 3.67 -2.7 3.34 -1 3 C-0.67 2.01 -0.34 1.02 0 0 Z " fill="#C4CDDC" transform="translate(153,23)"/>
<path d="M0 0 C1.32 0.33 2.64 0.66 4 1 C4 3.64 4 6.28 4 9 C3.01 8.67 2.02 8.34 1 8 C0.67 5.36 0.34 2.72 0 0 Z " fill="#103894" transform="translate(182,20)"/>
<path d="M0 0 C0.33 0.66 0.66 1.32 1 2 C1.66 2 2.32 2 3 2 C3.33 3.65 3.66 5.3 4 7 C2.02 7 0.04 7 -2 7 C-1.34 4.69 -0.68 2.38 0 0 Z " fill="#748ABD" transform="translate(140,42)"/>
<path d="M0 0 C2.31 0 4.62 0 7 0 C7.66 1.32 8.32 2.64 9 4 C7.68 4.33 6.36 4.66 5 5 C4.67 4.01 4.34 3.02 4 2 C1.98491642 1.26676204 1.98491642 1.26676204 0 1 C0 0.67 0 0.34 0 0 Z " fill="#1F4497" transform="translate(142,19)"/>
<path d="M0 0 C2.64 0 5.28 0 8 0 C8 0.66 8 1.32 8 2 C6.02 2 4.04 2 2 2 C1.67 2.99 1.34 3.98 1 5 C0.34 5 -0.32 5 -1 5 C-0.67 3.35 -0.34 1.7 0 0 Z " fill="#315294" transform="translate(138,49)"/>
<path d="M0 0 C0.33 0.66 0.66 1.32 1 2 C2.97888961 2.72693904 4.97954558 3.39816251 7 4 C5.25 5.125 5.25 5.125 3 6 C1.125 5.1875 1.125 5.1875 -1 4 C-2.99110401 3.61709538 -4.99100513 3.27395385 -7 3 C-7 2.67 -7 2.34 -7 2 C-4.69 2 -2.38 2 0 2 C0 1.34 0 0.68 0 0 Z " fill="#3D5FA0" transform="translate(39,26)"/>
<path d="M0 0 C1.98 0 3.96 0 6 0 C6.66 1.32 7.32 2.64 8 4 C6.68 4.33 5.36 4.66 4 5 C3.67 4.01 3.34 3.02 3 2 C2.01 2 1.02 2 0 2 C0 1.34 0 0.68 0 0 Z " fill="#1E4496" transform="translate(160,19)"/>
<path d="M0 0 C0.99 0 1.98 0 3 0 C3 3.63 3 7.26 3 11 C2.34 11 1.68 11 1 11 C0.67 7.37 0.34 3.74 0 0 Z " fill="#1B4594" transform="translate(177,43)"/>
<path d="M0 0 C1.98 0.495 1.98 0.495 4 1 C3.67 2.32 3.34 3.64 3 5 C1.68 5 0.36 5 -1 5 C-0.67 3.35 -0.34 1.7 0 0 Z " fill="#2A4E9E" transform="translate(164,27)"/>
<path d="M0 0 C0.66 0.66 1.32 1.32 2 2 C1.01 3.32 0.02 4.64 -1 6 C-3.31 5.01 -5.62 4.02 -8 3 C-8 2.34 -8 1.68 -8 1 C-5.36 1.33 -2.72 1.66 0 2 C0 1.34 0 0.68 0 0 Z " fill="#D8DEE9" transform="translate(90,21)"/>
<path d="M0 0 C0.33 0 0.66 0 1 0 C1 4.95 1 9.9 1 15 C1.66 15.33 2.32 15.66 3 16 C2.01 16.33 1.02 16.66 0 17 C-0.66 16.34 -1.32 15.68 -2 15 C-1.67 14.67 -1.34 14.34 -1 14 C-0.76472227 11.65012738 -0.58613583 9.29443961 -0.4375 6.9375 C-0.35371094 5.64714844 -0.26992188 4.35679688 -0.18359375 3.02734375 C-0.12300781 2.02832031 -0.06242187 1.02929688 0 0 Z " fill="#4867A0" transform="translate(41,49)"/>
<path d="M0 0 C0.33 0 0.66 0 1 0 C1.12375 0.969375 1.2475 1.93875 1.375 2.9375 C1.58125 3.948125 1.7875 4.95875 2 6 C2.66 6.33 3.32 6.66 4 7 C4 5.35 4 3.7 4 2 C4.33 2 4.66 2 5 2 C5.33 3.98 5.66 5.96 6 8 C5.01 8 4.02 8 3 8 C2.67 8.66 2.34 9.32 2 10 C0 8 0 8 -0.1953125 6.0546875 C-0.13020833 4.03645833 -0.06510417 2.01822917 0 0 Z " fill="#3A5B9A" transform="translate(171,22)"/>
<path d="M0 0 C1.5625 1.125 1.5625 1.125 3 3 C2.6875 6.1875 2.6875 6.1875 2 9 C0.68 8.67 -0.64 8.34 -2 8 C-1.67 7.67 -1.34 7.34 -1 7 C-0.63239269 4.67182036 -0.29758419 2.3381615 0 0 Z " fill="#C9D2E1" transform="translate(135,45)"/>
<path d="M0 0 C0.33 1.32 0.66 2.64 1 4 C-1.64 3.67 -4.28 3.34 -7 3 C-3.375 0 -3.375 0 0 0 Z " fill="#1D4498" transform="translate(163,30)"/>
<path d="M0 0 C0.99 0 1.98 0 3 0 C3 1.32 3 2.64 3 4 C2.34 4 1.68 4 1 4 C1 6.64 1 9.28 1 12 C0.67 12 0.34 12 0 12 C0 8.04 0 4.08 0 0 Z " fill="#214697" transform="translate(169,42)"/>
<path d="M0 0 C0.66 0 1.32 0 2 0 C2.33 1.65 2.66 3.3 3 5 C2.34 5 1.68 5 1 5 C1 7.31 1 9.62 1 12 C0.67 12 0.34 12 0 12 C0 8.04 0 4.08 0 0 Z " fill="#1C4392" transform="translate(114,42)"/>
<path d="M0 0 C0.66 0 1.32 0 2 0 C2 2.31 2 4.62 2 7 C1.01 6.67 0.02 6.34 -1 6 C-1.042721 4.33388095 -1.04063832 2.66617115 -1 1 C-0.67 0.67 -0.34 0.34 0 0 Z " fill="#093592" transform="translate(173,22)"/>
<path d="M0 0 C2.97 0.495 2.97 0.495 6 1 C5.67 2.32 5.34 3.64 5 5 C2 4 2 4 0.8125 1.9375 C0.544375 1.298125 0.27625 0.65875 0 0 Z " fill="#33579D" transform="translate(18,44)"/>
<path d="M0 0 C2.31 0.33 4.62 0.66 7 1 C7 1.66 7 2.32 7 3 C4.69 3 2.38 3 0 3 C0 2.01 0 1.02 0 0 Z " fill="#0E3893" transform="translate(174,30)"/>
</svg>
